<svg aria-hidden="true" style="position: absolute; width: 0; height: 0; overflow: hidden;" version="1.1" xmlns="http://www.w3.org/2000/svg" xmlns:xlink="http://www.w3.org/1999/xlink">
<defs>
<symbol id="icon-one" viewBox="0 0 37 32">
<path fill="#7fc34d" style="fill: var(--color1, #7fc34d)" d="M2.926 27.213c-1.984-2.656-2.876-6.406-2.876-11.051 0-4.644 0.891-8.385 2.881-11.018l0.001-0.002c2.062-2.719 5.075-4.022 8.819-4.022 3.741 0 6.744 1.301 8.782 4.023 2.016 2.634 2.92 6.376 2.92 11.019 0 4.648-0.906 8.401-2.92 11.057-2.040 2.699-5.044 3.985-8.782 3.985s-6.751-1.286-8.815-3.978l-0.010-0.013zM19.469 5.948c-1.741-2.33-4.314-3.494-7.718-3.494s-5.99 1.165-7.757 3.494c-1.741 2.304-2.611 5.709-2.611 10.214s0.87 7.923 2.611 10.253c1.766 2.304 4.352 3.456 7.757 3.456s5.978-1.152 7.718-3.456c1.766-2.33 2.65-5.747 2.65-10.253s-0.883-7.91-2.65-10.214zM14.905 9.662c-0.734-1.237-1.734-1.805-3.154-1.805s-2.42 0.568-3.154 1.805l-0.005 0.008c-0.789 1.307-1.268 3.413-1.268 6.492 0 3.074 0.477 5.197 1.27 6.535 0.73 1.207 1.728 1.771 3.157 1.771s2.427-0.563 3.157-1.771c0.793-1.338 1.27-3.461 1.27-6.535 0-3.079-0.479-5.185-1.268-6.492l-0.005-0.008zM16.052 23.381c-0.973 1.613-2.406 2.419-4.301 2.419s-3.328-0.806-4.301-2.419c-0.973-1.638-1.459-4.045-1.459-7.219s0.486-5.568 1.459-7.181c0.973-1.638 2.406-2.458 4.301-2.458s3.328 0.819 4.301 2.458c0.973 1.613 1.459 4.006 1.459 7.181s-0.486 5.581-1.459 7.219zM29.638 30.667v-19.49c-1.334 0.441-2.918 0.662-4.696 0.712l-1.371 0.038v-6.275l1.294-0.039c1.566-0.047 2.687-0.369 3.465-0.86 0.749-0.473 1.267-1.158 1.554-2.137l0.281-0.958h6.748v29.009h-7.275zM29.638 9.76c0.506-0.198 0.951-0.431 1.333-0.702v20.275h4.608v-26.342h-4.416c-0.742 2.534-2.829 3.853-6.259 3.955v3.61c0.465-0.013 0.91-0.038 1.333-0.076 1.34-0.118 2.474-0.358 3.401-0.72z"></path>
</symbol>
<symbol id="icon-two" viewBox="0 0 47 32">
<path fill="#7fc34d" style="fill: var(--color1, #7fc34d)" d="M2.926 27.213c-1.984-2.656-2.876-6.406-2.876-11.051 0-4.643 0.891-8.385 2.881-11.018l0.001-0.002c2.062-2.719 5.075-4.022 8.819-4.022 3.741 0 6.744 1.301 8.782 4.023 2.016 2.634 2.92 6.376 2.92 11.019 0 4.648-0.906 8.401-2.92 11.058-2.040 2.699-5.044 3.985-8.782 3.985s-6.751-1.286-8.815-3.978l-0.010-0.013zM19.469 5.948c-1.741-2.33-4.314-3.494-7.718-3.494s-5.99 1.165-7.757 3.494c-1.741 2.304-2.611 5.709-2.611 10.214s0.87 7.923 2.611 10.253c1.766 2.304 4.352 3.456 7.757 3.456s5.978-1.152 7.718-3.456c1.766-2.33 2.65-5.747 2.65-10.253s-0.883-7.91-2.65-10.214zM14.905 9.662c-0.734-1.237-1.734-1.805-3.154-1.805s-2.42 0.568-3.154 1.805l-0.005 0.008c-0.789 1.307-1.268 3.413-1.268 6.492 0 3.074 0.477 5.197 1.27 6.535 0.73 1.207 1.728 1.771 3.157 1.771s2.427-0.563 3.157-1.771c0.793-1.338 1.27-3.461 1.27-6.535 0-3.079-0.479-5.185-1.268-6.492l-0.005-0.008zM16.052 23.381c-0.973 1.613-2.406 2.419-4.301 2.419s-3.328-0.806-4.301-2.419c-0.973-1.638-1.459-4.045-1.459-7.219s0.486-5.568 1.459-7.181c0.973-1.638 2.406-2.458 4.301-2.458s3.328 0.819 4.301 2.458c0.973 1.613 1.459 4.006 1.459 7.181s-0.486 5.581-1.459 7.219zM23.946 30.666v-5.905l13.272-9.303c0.001-0.001 0.002-0.001 0.003-0.002 0.586-0.416 1.088-1.012 1.49-1.837l0.006-0.012 0.006-0.012c0.42-0.819 0.621-1.648 0.621-2.502 0-0.981-0.339-1.704-1.026-2.285l-0.013-0.011c-0.67-0.582-1.635-0.941-3.042-0.941-1.291 0-2.231 0.425-2.952 1.234-0.711 0.827-1.129 1.986-1.129 3.615v1.333h-7.006v-1.333c0-3.346 0.984-6.169 3.056-8.331 2.075-2.192 4.796-3.255 8.031-3.255 3.257 0 6.014 0.86 8.131 2.707 2.155 1.858 3.225 4.322 3.225 7.267 0 1.944-0.481 3.829-1.415 5.641l-0.004 0.008c-0.936 1.787-2.191 3.228-3.771 4.285l-4.176 2.902h9.328v6.737h-22.635zM32.998 25.263l7.68-5.338c1.382-0.922 2.496-2.189 3.341-3.802 0.845-1.638 1.267-3.315 1.267-5.030 0-2.586-0.922-4.672-2.765-6.259-1.818-1.587-4.237-2.381-7.258-2.381-2.918 0-5.274 0.947-7.066 2.842-1.525 1.59-2.401 3.616-2.628 6.078-0.040 0.431-0.060 0.876-0.060 1.333h4.339c0-1.869 0.486-3.366 1.459-4.493 0.998-1.126 2.317-1.69 3.955-1.69s2.944 0.422 3.917 1.267c0.998 0.845 1.498 1.946 1.498 3.302 0 1.075-0.256 2.112-0.768 3.11-0.486 0.998-1.126 1.779-1.92 2.342l-12.71 8.909v3.878h19.968v-4.070h-12.25z"></path>
</symbol>
<symbol id="icon-three" viewBox="0 0 47 32">
<path fill="#7fc34d" style="fill: var(--color1, #7fc34d)" d="M2.926 27.213c-1.984-2.656-2.876-6.406-2.876-11.051 0-4.643 0.891-8.385 2.881-11.018l0.001-0.002c2.062-2.719 5.075-4.022 8.819-4.022 3.741 0 6.744 1.301 8.782 4.023 2.016 2.634 2.92 6.376 2.92 11.019 0 1.435-0.086 2.784-0.265 4.043h7.082v1.333c0 0.856 0.312 1.503 1.005 2.045 0.757 0.548 1.833 0.884 3.345 0.884 1.669 0 2.87-0.336 3.712-0.888 0.802-0.55 1.099-1.156 1.099-1.888s-0.295-1.319-1.090-1.843l-0.009-0.006-0.009-0.006c-0.839-0.572-2.036-0.92-3.703-0.92h-3.791v-6.144h-6.989v-1.333c0-2.999 0.97-5.529 2.985-7.453 2.033-1.943 4.676-2.865 7.795-2.865 3.156 0 5.846 0.694 7.954 2.205 2.144 1.512 3.287 3.595 3.287 6.155 0 1.405-0.461 2.755-1.291 4.030l-0.008 0.012c-0.43 0.646-0.931 1.227-1.5 1.742 0.786 0.589 1.466 1.306 2.034 2.149 0.984 1.462 1.495 3.063 1.495 4.777 0 2.753-1.195 5.002-3.47 6.648-2.238 1.619-5.112 2.365-8.5 2.365-3.246 0-6.011-0.815-8.172-2.562l-0.008-0.006-0.008-0.006c-2.163-1.802-3.245-4.208-3.245-7.092v-1.332c-0.4 2.817-1.263 5.177-2.655 7.013-2.040 2.699-5.044 3.985-8.782 3.985s-6.751-1.286-8.815-3.978l-0.010-0.013zM41.966 16.122c-0.419-0.282-0.871-0.525-1.356-0.728 0.46-0.26 0.884-0.551 1.273-0.873 0.608-0.503 1.131-1.083 1.568-1.738 0.717-1.101 1.075-2.202 1.075-3.302 0-2.099-0.909-3.789-2.726-5.069-1.818-1.306-4.211-1.958-7.181-1.958-2.842 0-5.133 0.832-6.874 2.496-1.422 1.358-2.254 3.077-2.497 5.156-0.050 0.429-0.075 0.874-0.075 1.333h4.339c0-1.485 0.461-2.675 1.382-3.571 0.947-0.896 2.189-1.344 3.725-1.344 1.587 0 2.867 0.333 3.84 0.998 0.998 0.64 1.498 1.485 1.498 2.534 0 1.024-0.499 1.856-1.498 2.496-0.973 0.64-2.253 0.96-3.84 0.96h-2.458v4.070h2.458c1.843 0 3.328 0.384 4.454 1.152 1.126 0.742 1.69 1.728 1.69 2.957s-0.563 2.227-1.69 2.995c-1.126 0.742-2.611 1.114-4.454 1.114-1.715 0-3.098-0.384-4.147-1.152-1.024-0.794-1.536-1.83-1.536-3.11h-4.416c0 0.461 0.031 0.905 0.093 1.333 0.276 1.902 1.167 3.48 2.671 4.734 1.869 1.51 4.314 2.266 7.334 2.266 3.2 0 5.773-0.704 7.718-2.112s2.918-3.264 2.918-5.568c0-1.434-0.422-2.778-1.267-4.032-0.553-0.822-1.228-1.501-2.023-2.037zM31.818 8.83c-0.619 0.605-0.972 1.428-0.972 2.609v0.74h3.774c1.419 0 2.418-0.287 3.107-0.741l0.013-0.009c0.687-0.44 0.884-0.882 0.884-1.373 0-0.53-0.209-0.979-0.884-1.412l-0.017-0.011-0.016-0.011c-0.686-0.469-1.677-0.765-3.087-0.765-1.256 0-2.146 0.356-2.802 0.973zM19.469 5.948c-1.741-2.33-4.314-3.494-7.718-3.494s-5.99 1.165-7.757 3.494c-1.741 2.304-2.611 5.709-2.611 10.214s0.87 7.923 2.611 10.253c1.766 2.304 4.352 3.456 7.757 3.456s5.978-1.152 7.718-3.456c1.766-2.33 2.65-5.747 2.65-10.253s-0.883-7.91-2.65-10.214zM14.905 9.662c-0.734-1.237-1.734-1.805-3.154-1.805s-2.42 0.568-3.154 1.805l-0.005 0.008c-0.789 1.307-1.268 3.413-1.268 6.492 0 3.074 0.477 5.197 1.27 6.535 0.73 1.207 1.728 1.771 3.157 1.771s2.427-0.563 3.157-1.771c0.793-1.338 1.27-3.461 1.27-6.535 0-3.079-0.479-5.185-1.268-6.492l-0.005-0.008zM16.052 23.381c-0.973 1.613-2.406 2.419-4.301 2.419s-3.328-0.806-4.301-2.419c-0.973-1.638-1.459-4.045-1.459-7.219s0.486-5.568 1.459-7.181c0.973-1.638 2.406-2.458 4.301-2.458s3.328 0.819 4.301 2.458c0.973 1.613 1.459 4.006 1.459 7.181s-0.486 5.581-1.459 7.219z"></path>
</symbol>
<symbol id="icon-four" viewBox="0 0 48 32">
<path fill="#7fc34d" style="fill: var(--color1, #7fc34d)" d="M2.926 27.213c-1.984-2.656-2.876-6.406-2.876-11.051 0-4.643 0.891-8.385 2.881-11.018l0.001-0.002c2.062-2.719 5.075-4.022 8.819-4.022 3.741 0 6.744 1.301 8.782 4.023 2.016 2.634 2.92 6.376 2.92 11.019 0 4.648-0.906 8.401-2.92 11.058-2.040 2.699-5.044 3.985-8.782 3.985s-6.751-1.286-8.815-3.978l-0.010-0.013zM19.469 5.948c-1.741-2.33-4.314-3.494-7.718-3.494s-5.99 1.165-7.757 3.494c-1.741 2.304-2.611 5.709-2.611 10.214s0.87 7.923 2.611 10.253c1.766 2.304 4.352 3.456 7.757 3.456s5.978-1.152 7.718-3.456c1.766-2.33 2.65-5.747 2.65-10.253s-0.883-7.91-2.65-10.214zM14.905 9.662c-0.734-1.237-1.734-1.805-3.154-1.805s-2.42 0.568-3.154 1.805l-0.005 0.008c-0.789 1.307-1.268 3.413-1.268 6.492 0 3.074 0.477 5.197 1.27 6.535 0.73 1.207 1.728 1.771 3.157 1.771s2.427-0.563 3.157-1.771c0.793-1.338 1.27-3.461 1.27-6.535 0-3.079-0.479-5.185-1.268-6.492l-0.005-0.008zM16.052 23.381c-0.973 1.613-2.406 2.419-4.301 2.419s-3.328-0.806-4.301-2.419c-0.973-1.638-1.459-4.045-1.459-7.219s0.486-5.568 1.459-7.181c0.973-1.638 2.406-2.458 4.301-2.458s3.328 0.819 4.301 2.458c0.973 1.613 1.459 4.006 1.459 7.181s-0.486 5.581-1.459 7.219zM35.965 30.666v-6.72h-12.403v-4.937l12.001-17.352h7.677v15.552h3.725v6.737h-3.725v6.72h-7.275zM41.907 22.613h3.725v-4.070h-3.725v-15.552h-5.645l-11.366 16.435v3.187h12.403v6.72h4.608v-6.72zM37.299 18.543h-6.835l6.835-10.56v10.56zM35.965 12.496l-3.051 4.713h3.051v-4.713z"></path>
</symbol>
<symbol id="icon-five" viewBox="0 0 48 32">
<path fill="#7fc34d" style="fill: var(--color1, #7fc34d)" d="M2.926 27.213c-1.984-2.656-2.876-6.406-2.876-11.051 0-4.643 0.891-8.385 2.881-11.018l0.001-0.002c2.062-2.719 5.075-4.022 8.819-4.022 3.741 0 6.744 1.301 8.782 4.023 2.016 2.634 2.92 6.376 2.92 11.019 0 4.648-0.906 8.401-2.92 11.058-2.040 2.699-5.044 3.985-8.782 3.985s-6.751-1.286-8.815-3.978l-0.010-0.013zM19.469 5.948c-1.741-2.33-4.314-3.494-7.718-3.494s-5.99 1.165-7.757 3.494c-1.741 2.304-2.611 5.709-2.611 10.214s0.87 7.923 2.611 10.253c1.766 2.304 4.352 3.456 7.757 3.456s5.978-1.152 7.718-3.456c1.766-2.33 2.65-5.747 2.65-10.253s-0.883-7.91-2.65-10.214zM14.905 9.662c-0.734-1.237-1.734-1.805-3.154-1.805s-2.42 0.568-3.154 1.805l-0.005 0.008c-0.789 1.307-1.268 3.413-1.268 6.492 0 3.074 0.477 5.197 1.27 6.535 0.73 1.207 1.728 1.771 3.157 1.771s2.427-0.563 3.157-1.771c0.793-1.338 1.27-3.461 1.27-6.535 0-3.079-0.479-5.185-1.268-6.492l-0.005-0.008zM16.052 23.381c-0.973 1.613-2.406 2.419-4.301 2.419s-3.328-0.806-4.301-2.419c-0.973-1.638-1.459-4.045-1.459-7.219s0.486-5.568 1.459-7.181c0.973-1.638 2.406-2.458 4.301-2.458s3.328 0.819 4.301 2.458c0.973 1.613 1.459 4.006 1.459 7.181s-0.486 5.581-1.459 7.219zM26.804 28.325l0.007 0.006c2.194 1.957 5.058 2.873 8.452 2.873 3.368 0 6.214-0.982 8.401-3.049 2.22-2.073 3.301-4.797 3.301-8.038 0-3.24-1.011-5.969-3.12-8.050-2.106-2.104-4.858-3.113-8.12-3.113-1.399 0-2.73 0.263-3.987 0.78l0.17-1.339h13.599v-6.737h-19.716l-1.995 16.234 6.417 0.824 0.432-0.816c0.334-0.63 0.838-1.158 1.56-1.58 0.742-0.42 1.537-0.629 2.407-0.629 1.69 0 2.905 0.46 3.786 1.264l0.012 0.011c0.863 0.769 1.32 1.786 1.32 3.19 0 1.47-0.466 2.465-1.295 3.168-0.894 0.754-1.965 1.143-3.286 1.143-1.466 0-2.547-0.411-3.36-1.146-0.813-0.759-1.274-1.758-1.337-3.112l-0.059-1.272h-6.831v1.333c0 3.316 1.039 6.062 3.242 8.055zM31.539 11.292c1.308-0.67 2.703-1.005 4.185-1.005 2.97 0 5.363 0.909 7.181 2.726 1.818 1.792 2.726 4.16 2.726 7.104 0 2.918-0.96 5.274-2.88 7.066-1.894 1.792-4.39 2.688-7.488 2.688-3.149 0-5.67-0.845-7.565-2.534-1.584-1.432-2.497-3.343-2.738-5.732-0.043-0.429-0.065-0.873-0.065-1.333h4.224c0.077 1.664 0.666 3.008 1.766 4.032 1.101 0.998 2.522 1.498 4.262 1.498 1.613 0 2.995-0.486 4.147-1.459 1.178-0.998 1.766-2.394 1.766-4.186 0-1.741-0.589-3.136-1.766-4.186-1.178-1.075-2.739-1.613-4.685-1.613-1.101 0-2.125 0.269-3.072 0.806-0.922 0.538-1.613 1.242-2.074 2.112l-4.186-0.538 1.69-13.747h17.203v4.070h-13.44l-0.653 5.146c0.474-0.354 0.961-0.659 1.46-0.915z"></path>
</symbol>
<symbol id="icon-six" viewBox="0 0 48 32">
<path fill="#7fc34d" style="fill: var(--color1, #7fc34d)" d="M2.926 27.213c-1.984-2.656-2.876-6.406-2.876-11.051 0-4.643 0.891-8.385 2.881-11.018l0.001-0.002c2.062-2.719 5.075-4.022 8.819-4.022 3.741 0 6.744 1.301 8.782 4.023 2.016 2.634 2.92 6.376 2.92 11.019 0 4.648-0.906 8.401-2.92 11.058-2.040 2.699-5.044 3.985-8.782 3.985s-6.751-1.286-8.815-3.978l-0.010-0.013zM19.469 5.948c-1.741-2.33-4.314-3.494-7.718-3.494s-5.99 1.165-7.757 3.494c-1.741 2.304-2.611 5.709-2.611 10.214s0.87 7.923 2.611 10.253c1.766 2.304 4.352 3.456 7.757 3.456s5.978-1.152 7.718-3.456c1.766-2.33 2.65-5.747 2.65-10.253s-0.883-7.91-2.65-10.214zM14.905 9.662c-0.734-1.237-1.734-1.805-3.154-1.805s-2.42 0.568-3.154 1.805l-0.005 0.008c-0.789 1.307-1.268 3.413-1.268 6.492 0 3.074 0.477 5.197 1.27 6.535 0.73 1.207 1.728 1.771 3.157 1.771s2.427-0.563 3.157-1.771c0.793-1.338 1.27-3.461 1.27-6.535 0-3.079-0.479-5.185-1.268-6.492l-0.005-0.008zM16.052 23.381c-0.973 1.613-2.406 2.419-4.301 2.419s-3.328-0.806-4.301-2.419c-0.973-1.638-1.459-4.045-1.459-7.219s0.486-5.568 1.459-7.181c0.973-1.638 2.406-2.458 4.301-2.458s3.328 0.819 4.301 2.458c0.973 1.613 1.459 4.006 1.459 7.181s-0.486 5.581-1.459 7.219zM40.563 9.557h4.416c-0.112-0.464-0.254-0.908-0.427-1.333-0.619-1.521-1.628-2.792-3.029-3.812-1.766-1.306-3.84-1.958-6.221-1.958-3.123 0-5.645 1.267-7.565 3.802-1.894 2.509-2.842 5.811-2.842 9.907 0 4.122 0.947 7.437 2.842 9.946 1.92 2.509 4.429 3.763 7.526 3.763s5.594-0.909 7.488-2.726c1.92-1.818 2.88-4.211 2.88-7.181 0-2.944-0.87-5.312-2.611-7.104-0.818-0.854-1.755-1.511-2.811-1.969-0.231-0.1-0.468-0.191-0.711-0.273-1.006-0.338-2.111-0.512-3.313-0.523-1.331 0-2.598 0.32-3.802 0.96-0.427 0.227-0.819 0.479-1.175 0.754-0.647 0.501-1.177 1.081-1.59 1.742 0.055-0.911 0.192-1.744 0.412-2.5 0.293-1.007 0.731-1.876 1.316-2.607 1.050-1.28 2.368-1.92 3.955-1.92 1.306 0 2.432 0.282 3.379 0.845 0.973 0.563 1.6 1.293 1.882 2.189zM42.818 10.89c0.407 0.313 0.795 0.66 1.162 1.043 2.023 2.084 2.985 4.807 2.985 8.030 0 3.285-1.076 6.045-3.293 8.146-2.186 2.096-5.034 3.095-8.408 3.095-3.522 0-6.419-1.455-8.585-4.286l-0.005-0.007c-2.117-2.803-3.111-6.428-3.111-10.749 0-4.298 0.995-7.909 3.111-10.711l0.001-0.002c2.167-2.86 5.078-4.33 8.628-4.33 2.639 0 4.995 0.729 7.010 2.217 2.042 1.489 3.377 3.472 3.963 5.908l0.397 1.646h-3.853zM38.693 9.021c-0.181-0.173-0.405-0.34-0.681-0.499l-0.013-0.008c-0.706-0.42-1.587-0.658-2.698-0.658-1.166 0-2.111 0.444-2.919 1.426-0.11 0.137-0.214 0.282-0.312 0.435 1.3-0.634 2.676-0.957 4.115-0.957h0.012c0.871 0.008 1.704 0.094 2.496 0.26zM38.522 23.306c0.744-0.781 1.168-1.85 1.168-3.343 0-1.462-0.421-2.519-1.168-3.304l-0.012-0.012c-0.715-0.77-1.663-1.187-2.978-1.187-1.279 0-2.215 0.41-2.934 1.18-0.701 0.779-1.109 1.854-1.109 3.361 0 1.476 0.404 2.541 1.109 3.323 0.723 0.775 1.648 1.18 2.895 1.18 1.348 0 2.305-0.421 3.017-1.187l0.011-0.012zM31.615 15.739c0.998-1.075 2.304-1.613 3.917-1.613 1.638 0 2.957 0.538 3.955 1.613 1.024 1.075 1.536 2.483 1.536 4.224 0 1.766-0.512 3.187-1.536 4.262-0.998 1.075-2.33 1.613-3.994 1.613-1.587 0-2.88-0.538-3.878-1.613-0.973-1.075-1.459-2.483-1.459-4.224 0-1.766 0.486-3.187 1.459-4.262z"></path>
</symbol>
<symbol id="icon-arrow" viewBox="0 0 32 32">
<path fill="none" stroke="#fff" style="stroke: var(--color2, #fff)" stroke-linejoin="round" stroke-linecap="round" stroke-miterlimit="10" stroke-width="2" d="M19.24 24.094l8.093-8.093-8.093-8.093"></path>
<path fill="none" stroke="#fff" style="stroke: var(--color2, #fff)" stroke-linejoin="round" stroke-linecap="round" stroke-miterlimit="10" stroke-width="2" d="M4.667 16h22.44"></path>
</symbol>
<symbol id="icon-calendar" viewBox="0 0 32 32">
<path fill="#7fc34d" style="fill: var(--color1, #7fc34d)" opacity="0.12" d="M22.667 4h-13.333c-2.946 0-5.333 2.388-5.333 5.333v13.333c0 2.946 2.388 5.333 5.333 5.333h13.333c2.946 0 5.333-2.388 5.333-5.333v-13.333c0-2.946-2.388-5.333-5.333-5.333z"></path>
<path fill="#7fc34d" style="fill: var(--color1, #7fc34d)" d="M11.667 1.333v1.667h7.845c0.285 0 0.559 0 0.822 0.001v-1.667c0-0.552 0.448-1 1-1s1 0.448 1 1v1.7c0.253 0.011 0.492 0.025 0.718 0.043 0.951 0.078 1.756 0.24 2.491 0.614 1.192 0.607 2.161 1.576 2.768 2.768 0.374 0.735 0.537 1.54 0.614 2.491 0.076 0.93 0.076 2.084 0.076 3.54v7.021c0 1.456 0 2.61-0.076 3.54-0.078 0.951-0.24 1.756-0.614 2.491-0.607 1.192-1.576 2.161-2.768 2.768-0.735 0.374-1.54 0.537-2.491 0.614-0.93 0.076-2.084 0.076-3.54 0.076h-7.021c-1.456 0-2.61 0-3.54-0.076-0.951-0.078-1.756-0.24-2.491-0.614-1.192-0.607-2.161-1.576-2.768-2.768-0.374-0.735-0.537-1.54-0.614-2.491-0.076-0.93-0.076-2.084-0.076-3.54v-7.981l-0-0.209c-0-1.843-0.001-3.017 0.328-3.999 0.631-1.883 2.109-3.361 3.992-3.992 0.651-0.218 1.387-0.292 2.346-0.316v-1.679c0-0.552 0.448-1 1-1s1 0.448 1 1zM20.333 5.333v-0.333c-0.272-0.001-0.56-0.001-0.867-0.001h-7.8v0.333c0 0.552-0.448 1-1 1s-1-0.448-1-1v-0.319c-0.835 0.022-1.31 0.076-1.71 0.21-1.289 0.432-2.3 1.443-2.732 2.732-0.212 0.631-0.225 1.449-0.225 3.573v7.937c0 1.51 0.001 2.582 0.069 3.421 0.068 0.827 0.196 1.34 0.403 1.746 0.415 0.815 1.078 1.478 1.894 1.894 0.406 0.207 0.918 0.335 1.746 0.403 0.839 0.069 1.911 0.069 3.421 0.069h6.933c1.51 0 2.582-0.001 3.421-0.069 0.827-0.068 1.34-0.196 1.746-0.403 0.815-0.415 1.478-1.078 1.894-1.894 0.207-0.406 0.335-0.918 0.403-1.746 0.069-0.839 0.069-1.911 0.069-3.421v-6.933c0-1.51-0.001-2.582-0.069-3.421-0.068-0.828-0.196-1.34-0.403-1.746-0.415-0.815-1.078-1.478-1.894-1.894-0.406-0.207-0.918-0.335-1.746-0.403-0.174-0.014-0.359-0.026-0.555-0.035v0.299c0 0.552-0.448 1-1 1s-1-0.448-1-1zM9.333 9.667c-0.552 0-1 0.448-1 1s0.448 1 1 1h13.333c0.552 0 1-0.448 1-1s-0.448-1-1-1h-13.333zM12 16c0 0.736-0.597 1.333-1.333 1.333s-1.333-0.597-1.333-1.333 0.597-1.333 1.333-1.333c0.736 0 1.333 0.597 1.333 1.333zM10.667 22.667c0.736 0 1.333-0.597 1.333-1.333s-0.597-1.333-1.333-1.333c-0.736 0-1.333 0.597-1.333 1.333s0.597 1.333 1.333 1.333zM17.333 21.333c0 0.736-0.597 1.333-1.333 1.333s-1.333-0.597-1.333-1.333c0-0.736 0.597-1.333 1.333-1.333s1.333 0.597 1.333 1.333zM21.333 22.667c0.736 0 1.333-0.597 1.333-1.333s-0.597-1.333-1.333-1.333c-0.736 0-1.333 0.597-1.333 1.333s0.597 1.333 1.333 1.333zM17.333 16c0 0.736-0.597 1.333-1.333 1.333s-1.333-0.597-1.333-1.333c0-0.736 0.597-1.333 1.333-1.333s1.333 0.597 1.333 1.333zM21.333 17.333c0.736 0 1.333-0.597 1.333-1.333s-0.597-1.333-1.333-1.333c-0.736 0-1.333 0.597-1.333 1.333s0.597 1.333 1.333 1.333z"></path>
</symbol>
<symbol id="icon-checkbox" viewBox="0 0 32 32">
<path fill="#7fc34d" style="fill: var(--color1, #7fc34d)" opacity="0.12" d="M22.667 4h-13.333c-2.946 0-5.333 2.388-5.333 5.333v13.333c0 2.945 2.388 5.333 5.333 5.333h13.333c2.945 0 5.333-2.388 5.333-5.333v-13.333c0-2.946-2.388-5.333-5.333-5.333z"></path>
<path fill="#7fc34d" style="fill: var(--color1, #7fc34d)" d="M12.533 3h-0.044c-1.456 0-2.61 0-3.54 0.076-0.951 0.078-1.756 0.24-2.491 0.614-1.192 0.607-2.161 1.576-2.768 2.768-0.374 0.735-0.537 1.54-0.614 2.491-0.076 0.93-0.076 2.084-0.076 3.54v7.021c0 1.456 0 2.61 0.076 3.54 0.078 0.951 0.24 1.756 0.614 2.491 0.607 1.192 1.576 2.161 2.768 2.768 0.735 0.374 1.54 0.537 2.491 0.614 0.93 0.076 2.084 0.076 3.54 0.076h7.021c1.456 0 2.61 0 3.54-0.076 0.951-0.078 1.756-0.24 2.491-0.614 1.192-0.607 2.161-1.576 2.768-2.768 0.374-0.735 0.537-1.54 0.614-2.491 0.076-0.93 0.076-2.084 0.076-3.54v-4.844c0-0.552-0.448-1-1-1s-1 0.448-1 1v4.8c0 1.51-0.001 2.582-0.069 3.421-0.068 0.827-0.196 1.34-0.403 1.746-0.415 0.815-1.078 1.478-1.894 1.894-0.406 0.207-0.918 0.335-1.746 0.403-0.839 0.069-1.911 0.069-3.421 0.069h-6.933c-1.51 0-2.582-0.001-3.421-0.069-0.828-0.068-1.34-0.196-1.746-0.403-0.815-0.415-1.478-1.078-1.894-1.894-0.207-0.406-0.335-0.918-0.403-1.746-0.069-0.839-0.069-1.911-0.069-3.421v-6.933c0-1.51 0.001-2.582 0.069-3.421 0.068-0.828 0.196-1.34 0.403-1.746 0.415-0.815 1.078-1.478 1.894-1.894 0.406-0.207 0.918-0.335 1.746-0.403 0.839-0.069 1.912-0.069 3.421-0.069h8.8c0.552 0 1-0.448 1-1s-0.448-1-1-1h-8.8zM28.707 7.374c0.391-0.391 0.391-1.024 0-1.414s-1.024-0.391-1.414 0l-11.293 11.293-3.293-3.293c-0.391-0.391-1.024-0.391-1.414 0s-0.391 1.024 0 1.414l4 4c0.187 0.188 0.442 0.293 0.707 0.293s0.52-0.105 0.707-0.293l12-12z"></path>
</symbol>
<symbol id="icon-clock" viewBox="0 0 32 32">
<path fill="#7fc34d" style="fill: var(--color1, #7fc34d)" opacity="0.12" d="M16 28c6.627 0 12-5.373 12-12s-5.373-12-12-12c-6.627 0-12 5.373-12 12s5.373 12 12 12z"></path>
<path fill="#7fc34d" style="fill: var(--color1, #7fc34d)" d="M7.374 1.96c0.39 0.391 0.39 1.024 0 1.414l-4 4c-0.391 0.39-1.024 0.39-1.414 0s-0.391-1.024 0-1.414l4-4c0.391-0.391 1.024-0.391 1.414 0zM5 16c0-6.075 4.925-11 11-11s11 4.925 11 11c0 6.075-4.925 11-11 11s-11-4.925-11-11zM16 3c-7.18 0-13 5.82-13 13s5.82 13 13 13c7.18 0 13-5.82 13-13s-5.82-13-13-13zM17 10.667c0-0.552-0.448-1-1-1s-1 0.448-1 1v5.333c0 0.334 0.167 0.647 0.445 0.832l4 2.667c0.459 0.306 1.080 0.182 1.387-0.277s0.182-1.080-0.277-1.387l-3.555-2.37v-4.798zM24.626 3.374c-0.391-0.391-0.391-1.024 0-1.414s1.024-0.391 1.414 0l4 4c0.391 0.391 0.391 1.024 0 1.414s-1.024 0.39-1.414 0l-4-4z"></path>
</symbol>
<symbol id="icon-dashblack-logo" viewBox="0 0 59 32">
<path fill="#fff" style="fill: var(--color2, #fff)" d="M0 27.505h1.24c2.355 0 4.075-1 4.075-3.565 0-2.080-1-3.545-3.555-3.545h-1.76v7.11zM0.7 21.005h1.030c1.59 0 2.885 0.72 2.885 2.89s-1.315 3-3.335 3h-0.58v-5.89z"></path>
<path fill="#fff" style="fill: var(--color2, #fff)" d="M11.2 24.985h-3.090l1.55-3.92 1.54 3.92zM6.4 27.485h0.68l0.765-1.905h3.585l0.765 1.905h0.735l-2.82-7.090h-0.795l-2.915 7.090z"></path>
<path fill="#fff" style="fill: var(--color2, #fff)" d="M13.96 27.32c0.51 0.21 1.058 0.314 1.61 0.305 1.1 0 2.335-0.57 2.335-2 0-2.080-3.26-2.090-3.26-3.5 0-0.92 0.805-1.225 1.54-1.225 0.445-0.011 0.886 0.080 1.29 0.265l0.105-0.66c-0.448-0.157-0.92-0.236-1.395-0.235-1.255 0-2.255 0.715-2.255 1.855 0 1.865 3.26 2.035 3.26 3.435 0 1-0.72 1.455-1.6 1.455-0.552 0.018-1.097-0.128-1.565-0.42l-0.065 0.725z"></path>
<path fill="#fff" style="fill: var(--color2, #fff)" d="M19.63 27.505h0.705v-3.35h3.595v3.35h0.705v-7.11h-0.705v3.145h-3.595v-3.145h-0.705v7.11z"></path>
<path fill="#fff" style="fill: var(--color2, #fff)" d="M26.64 27.505v-7.11h2.5c0.52-0.026 1.038 0.086 1.5 0.325 0.263 0.148 0.478 0.368 0.62 0.633s0.207 0.566 0.185 0.867c0.012 0.387-0.126 0.763-0.385 1.050-0.272 0.291-0.636 0.482-1.030 0.54 0.438 0.024 0.854 0.201 1.175 0.5 0.147 0.143 0.263 0.314 0.341 0.503s0.117 0.392 0.114 0.597c0.025 0.342-0.049 0.683-0.212 0.984s-0.409 0.55-0.708 0.716c-0.488 0.256-1.034 0.38-1.585 0.36l-2.515 0.035zM28.070 21.505v1.75h0.58c0.895 0 1.345-0.29 1.345-0.865 0.014-0.152-0.018-0.304-0.092-0.437s-0.187-0.24-0.323-0.308c-0.301-0.101-0.618-0.145-0.935-0.13l-0.575-0.010zM28.070 24.315v2.060h0.67c0.98 0 1.47-0.333 1.47-1 0-0.715-0.5-1.070-1.47-1.070l-0.67 0.010z"></path>
<path fill="#fff" style="fill: var(--color2, #fff)" d="M33.155 27.505v-7.11h1.43v5.99h2.76v1.12h-4.19z"></path>
<path fill="#fff" style="fill: var(--color2, #fff)" d="M37.805 27.505l2.775-7.11h1.61l2.79 7.11h-1.58l-0.61-1.63h-2.88l-0.625 1.63h-1.48zM42.39 24.755l-1.030-2.935-1.030 2.935h2.060z"></path>
<path fill="#fff" style="fill: var(--color2, #fff)" d="M51.294 26.22l0.060 1.19c-0.529 0.137-1.073 0.212-1.62 0.225-1.012 0.060-2.011-0.251-2.81-0.875-0.372-0.336-0.663-0.751-0.851-1.215s-0.27-0.965-0.239-1.465c-0.033-0.514 0.043-1.030 0.222-1.513s0.458-0.923 0.818-1.292c0.387-0.347 0.84-0.613 1.33-0.785s1.011-0.245 1.53-0.215c0.55-0.004 1.096 0.096 1.61 0.295l-0.1 1.205c-0.47-0.262-1.002-0.394-1.54-0.38-0.324-0.013-0.647 0.046-0.946 0.172s-0.567 0.317-0.784 0.558c-0.444 0.511-0.677 1.173-0.65 1.85-0.027 0.668 0.206 1.32 0.65 1.82 0.224 0.24 0.497 0.429 0.801 0.552s0.631 0.179 0.959 0.163c0.536 0.024 1.070-0.077 1.56-0.295z"></path>
<path fill="#fff" style="fill: var(--color2, #fff)" d="M52.696 27.505v-7.11h1.43v3.055l2.565-3.055h1.75l-2.92 3.35 3.045 3.76h-1.875l-2.565-3.3v3.3h-1.43z"></path>
<path fill="#fff" style="fill: var(--color2, #fff)" d="M22.8 17.045v-14.975h0.78v1.185h1.155v11.5c1.5 0.035 4.29 0.18 5.7-0.275 0.989-0.312 1.847-0.942 2.441-1.792s0.891-1.872 0.844-2.908c0.046-1.172-0.363-2.316-1.14-3.195-0.373-0.408-0.829-0.732-1.338-0.947s-1.059-0.319-1.612-0.303c-0.431-0-0.861 0.050-1.28 0.15-0.449 0.104-0.885 0.256-1.3 0.455v-3.865c2.667 0.040 4.765 0.707 6.295 2 2.585 2.18 3.11 6.315 1.435 9.18-0.666 1.117-1.616 2.037-2.755 2.665-0.702 0.399-1.461 0.689-2.25 0.86-0.988 0.193-1.994 0.281-3 0.265h-3.975z"></path>
<path fill="#fff" style="fill: var(--color2, #fff)" d="M27.050 7.645v5.26c0.232 0.071 0.47 0.123 0.71 0.155 0.218 0.034 0.439 0.050 0.66 0.050 0.4 0.019 0.8-0.047 1.172-0.195s0.709-0.373 0.988-0.66c0.557-0.633 0.846-1.458 0.805-2.3 0.037-0.761-0.209-1.509-0.69-2.1-0.224-0.259-0.503-0.465-0.817-0.602s-0.655-0.201-0.997-0.188c-0.294 0.001-0.586 0.050-0.865 0.145-0.333 0.111-0.653 0.256-0.955 0.435z"></path>
<path fill="#fff" style="fill: var(--color2, #fff)" d="M25.28 1.57h-1.43v1.43h1.43v-1.43z"></path>
<path fill="#fff" style="fill: var(--color2, #fff)" d="M25.090 0.49h-0.86v0.86h0.86v-0.86z"></path>
<path fill="#fff" style="fill: var(--color2, #fff)" d="M23.945 0h-1.010v1.010h1.010v-1.010z"></path>
<path fill="#fff" style="fill: var(--color2, #fff)" d="M7.51 29.82v0.69h0.175c0.136 0.007 0.271-0.012 0.4-0.055 0.055-0.029 0.1-0.073 0.129-0.127s0.042-0.116 0.036-0.178c0-0.22-0.135-0.33-0.41-0.33h-0.33zM7.51 30.77v0.75h0.235c0.365 0 0.545-0.12 0.545-0.36s-0.19-0.39-0.575-0.39h-0.205zM7.19 31.77v-2.21h0.6c0.5 0 0.78 0.19 0.78 0.56 0.008 0.131-0.035 0.26-0.121 0.359s-0.208 0.16-0.339 0.171c0.14 0.007 0.273 0.064 0.375 0.16 0.048 0.049 0.085 0.108 0.109 0.173s0.035 0.133 0.031 0.202c0 0.395-0.28 0.59-0.845 0.59l-0.59-0.005z"></path>
<path fill="#fff" style="fill: var(--color2, #fff)" d="M11.68 29.56v1.3c0.019 0.257-0.061 0.511-0.225 0.71-0.082 0.085-0.182 0.152-0.293 0.195s-0.229 0.062-0.347 0.055c-0.118 0.007-0.235-0.012-0.345-0.055s-0.209-0.11-0.29-0.195c-0.164-0.199-0.244-0.453-0.225-0.71v-1.3h0.32v1.26c0 0.48 0.18 0.72 0.54 0.72 0.365 0 0.545-0.24 0.545-0.72v-1.26h0.32z"></path>
<path fill="#fff" style="fill: var(--color2, #fff)" d="M14.080 29.605l-0.045 0.29c-0.132-0.055-0.272-0.085-0.415-0.090-0.26 0-0.39 0.095-0.39 0.295 0 0.11 0.085 0.21 0.25 0.3l0.455 0.25c0.079 0.057 0.142 0.133 0.186 0.22s0.066 0.183 0.064 0.28c0.004 0.097-0.016 0.193-0.058 0.28s-0.104 0.163-0.182 0.22c-0.169 0.11-0.368 0.164-0.57 0.155-0.155-0.009-0.309-0.041-0.455-0.095l0.030-0.295c0.145 0.067 0.301 0.104 0.46 0.11 0.101 0.001 0.201-0.028 0.285-0.085 0.048-0.029 0.087-0.070 0.113-0.12s0.039-0.105 0.037-0.16c-0.006-0.074-0.032-0.144-0.075-0.204s-0.102-0.107-0.17-0.136l-0.46-0.24c-0.077-0.051-0.141-0.121-0.184-0.203s-0.064-0.174-0.062-0.267c-0.004-0.086 0.012-0.172 0.048-0.25s0.089-0.147 0.157-0.2c0.146-0.104 0.321-0.157 0.5-0.15 0.162-0.002 0.323 0.026 0.475 0.080z"></path>
<path fill="#fff" style="fill: var(--color2, #fff)" d="M15.76 29.56h-0.32v2.22h0.32v-2.22z"></path>
<path fill="#fff" style="fill: var(--color2, #fff)" d="M17.12 31.78v-2.215h0.43l0.985 1.785v-1.785h0.32v2.215h-0.41l-1.010-1.825v1.825h-0.315z"></path>
<path fill="#fff" style="fill: var(--color2, #fff)" d="M20.23 31.78v-2.215h1.245v0.275h-0.925v0.65h0.84v0.28h-0.84v0.73h0.925v0.28h-1.245z"></path>
<path fill="#fff" style="fill: var(--color2, #fff)" d="M23.835 29.605l-0.045 0.29c-0.132-0.055-0.272-0.085-0.415-0.090-0.26 0-0.39 0.095-0.39 0.295 0 0.11 0.085 0.21 0.25 0.3l0.455 0.25c0.078 0.057 0.142 0.133 0.186 0.22s0.066 0.183 0.064 0.28c0.004 0.097-0.016 0.193-0.058 0.28s-0.105 0.163-0.182 0.22c-0.169 0.11-0.369 0.164-0.57 0.155-0.155-0.010-0.309-0.042-0.455-0.095l0.030-0.295c0.144 0.067 0.301 0.104 0.46 0.11 0.103 0.002 0.204-0.027 0.29-0.085 0.048-0.029 0.087-0.070 0.113-0.12s0.039-0.105 0.037-0.16c-0.007-0.074-0.034-0.145-0.078-0.205s-0.104-0.107-0.172-0.135l-0.46-0.24c-0.078-0.051-0.141-0.121-0.183-0.203s-0.064-0.174-0.061-0.267c-0.003-0.086 0.013-0.171 0.049-0.249s0.089-0.147 0.156-0.201c0.146-0.104 0.321-0.157 0.5-0.15 0.17-0.005 0.34 0.023 0.5 0.080z"></path>
<path fill="#fff" style="fill: var(--color2, #fff)" d="M26.225 29.605l-0.045 0.29c-0.132-0.055-0.272-0.085-0.415-0.090-0.26 0-0.39 0.095-0.39 0.295 0 0.11 0.085 0.21 0.25 0.3l0.455 0.25c0.078 0.057 0.142 0.133 0.186 0.22s0.066 0.183 0.064 0.28c0.004 0.097-0.016 0.193-0.058 0.28s-0.105 0.163-0.182 0.22c-0.169 0.11-0.368 0.164-0.57 0.155-0.15-0.008-0.298-0.036-0.44-0.085l0.030-0.295c0.145 0.067 0.301 0.104 0.46 0.11 0.103 0.002 0.204-0.027 0.29-0.085 0.046-0.031 0.083-0.072 0.109-0.121s0.038-0.104 0.036-0.159c-0.006-0.074-0.032-0.144-0.075-0.204s-0.102-0.107-0.17-0.136l-0.46-0.24c-0.077-0.051-0.141-0.121-0.183-0.203s-0.064-0.174-0.062-0.267c-0.004-0.086 0.012-0.172 0.048-0.25s0.090-0.147 0.157-0.2c0.146-0.104 0.321-0.157 0.5-0.15 0.17-0.005 0.34 0.023 0.5 0.080z"></path>
<path fill="#fff" style="fill: var(--color2, #fff)" d="M29.495 29.605l-0.040 0.29c-0.134-0.055-0.276-0.085-0.42-0.090-0.255 0-0.385 0.095-0.385 0.295 0 0.11 0.080 0.21 0.245 0.3l0.46 0.25c0.078 0.058 0.141 0.133 0.183 0.22s0.064 0.183 0.062 0.28c0.005 0.096-0.014 0.192-0.055 0.279s-0.103 0.163-0.18 0.221c-0.171 0.109-0.372 0.163-0.575 0.155-0.155-0.010-0.309-0.042-0.455-0.095l0.035-0.295c0.145 0.067 0.301 0.104 0.46 0.11 0.101 0.001 0.201-0.028 0.285-0.085 0.048-0.029 0.087-0.071 0.113-0.12s0.039-0.105 0.037-0.16c-0.007-0.074-0.034-0.145-0.078-0.205s-0.104-0.107-0.172-0.135l-0.435-0.225c-0.078-0.051-0.142-0.121-0.186-0.203s-0.066-0.174-0.064-0.267c-0.004-0.086 0.014-0.172 0.050-0.251s0.091-0.147 0.16-0.199c0.145-0.105 0.321-0.158 0.5-0.15 0.16-0.002 0.319 0.026 0.47 0.080z"></path>
<path fill="#fff" style="fill: var(--color2, #fff)" d="M30.72 30.67c-0.013-0.3 0.089-0.593 0.285-0.82 0.103-0.103 0.225-0.185 0.36-0.241s0.279-0.084 0.425-0.084c0.146 0 0.29 0.029 0.425 0.084s0.257 0.138 0.36 0.241c0.194 0.228 0.295 0.521 0.28 0.82 0.018 0.3-0.080 0.596-0.275 0.825-0.099 0.108-0.221 0.194-0.356 0.25s-0.282 0.082-0.429 0.075c-0.148 0.008-0.295-0.018-0.431-0.074s-0.259-0.142-0.359-0.251c-0.195-0.229-0.295-0.524-0.28-0.825h-0.005zM31.060 30.67c-0.007 0.214 0.054 0.424 0.175 0.6 0.064 0.088 0.149 0.158 0.246 0.205s0.205 0.069 0.314 0.065c0.108 0.005 0.215-0.017 0.312-0.064s0.181-0.118 0.243-0.206c0.116-0.18 0.178-0.389 0.178-0.602s-0.062-0.423-0.178-0.602c-0.064-0.084-0.148-0.152-0.243-0.197s-0.201-0.067-0.307-0.063c-0.106-0.005-0.212 0.016-0.308 0.061s-0.179 0.114-0.242 0.199c-0.122 0.177-0.182 0.39-0.17 0.605h-0.020z"></path>
<path fill="#fff" style="fill: var(--color2, #fff)" d="M34.105 31.78v-2.215h0.32v1.935h0.925v0.28h-1.245z"></path>
<path fill="#fff" style="fill: var(--color2, #fff)" d="M38.225 29.56v1.3c0.019 0.257-0.061 0.511-0.225 0.71-0.082 0.085-0.182 0.152-0.293 0.195s-0.229 0.062-0.347 0.055c-0.118 0.007-0.235-0.012-0.345-0.055s-0.209-0.11-0.29-0.195c-0.164-0.199-0.244-0.453-0.225-0.71v-1.3h0.32v1.26c0 0.48 0.18 0.72 0.54 0.72 0.365 0 0.545-0.24 0.545-0.72v-1.26h0.32z"></path>
<path fill="#fff" style="fill: var(--color2, #fff)" d="M40.035 31.78v-1.94h-0.69v-0.275h1.7v0.275h-0.69v1.94h-0.32z"></path>
<path fill="#fff" style="fill: var(--color2, #fff)" d="M42.48 29.56h-0.32v2.22h0.32v-2.22z"></path>
<path fill="#fff" style="fill: var(--color2, #fff)" d="M43.73 30.67c-0.012-0.299 0.088-0.591 0.28-0.82 0.209-0.209 0.492-0.326 0.788-0.326s0.578 0.117 0.788 0.326c0.192 0.229 0.292 0.521 0.28 0.82 0.015 0.301-0.085 0.596-0.28 0.825-0.209 0.209-0.492 0.326-0.788 0.326s-0.578-0.117-0.788-0.326c-0.197-0.228-0.297-0.524-0.28-0.825zM44.065 30.67c-0.007 0.214 0.054 0.424 0.175 0.6 0.063 0.088 0.146 0.159 0.243 0.206s0.204 0.069 0.312 0.064c0.108 0.004 0.216-0.018 0.314-0.065s0.182-0.117 0.246-0.205c0.121-0.176 0.182-0.386 0.175-0.6 0.008-0.217-0.057-0.43-0.185-0.605-0.063-0.085-0.147-0.154-0.242-0.199s-0.202-0.066-0.308-0.061c-0.106-0.004-0.211 0.018-0.307 0.063s-0.179 0.113-0.243 0.197c-0.118 0.179-0.176 0.391-0.165 0.605h-0.015z"></path>
<path fill="#fff" style="fill: var(--color2, #fff)" d="M47.115 31.78v-2.215h0.435l0.98 1.785v-1.785h0.32v2.215h-0.41l-1.010-1.825v1.825h-0.315z"></path>
<path fill="#fff" style="fill: var(--color2, #fff)" d="M51.264 29.605l-0.045 0.29c-0.132-0.055-0.272-0.085-0.415-0.090-0.26 0-0.39 0.095-0.39 0.295 0 0.11 0.085 0.21 0.25 0.3l0.455 0.25c0.078 0.057 0.142 0.133 0.186 0.22s0.066 0.183 0.064 0.28c0.005 0.097-0.016 0.193-0.057 0.28s-0.105 0.163-0.182 0.22c-0.169 0.11-0.368 0.164-0.57 0.155-0.156-0.009-0.309-0.041-0.455-0.095l0.030-0.295c0.145 0.067 0.301 0.104 0.46 0.11 0.102 0.001 0.201-0.028 0.285-0.085 0.048-0.029 0.087-0.070 0.113-0.12s0.039-0.105 0.037-0.16c-0.005-0.074-0.032-0.144-0.075-0.204s-0.102-0.107-0.17-0.136l-0.46-0.24c-0.077-0.051-0.141-0.121-0.184-0.203s-0.064-0.174-0.062-0.267c-0.004-0.086 0.013-0.172 0.048-0.25s0.090-0.147 0.157-0.2c0.146-0.104 0.322-0.157 0.5-0.15 0.17-0.005 0.34 0.023 0.5 0.080z"></path>
</symbol>
<symbol id="icon-search" viewBox="0 0 32 32">
<path fill="#fff" style="fill: var(--color2, #fff)" d="M5 14.667c0-5.339 4.328-9.667 9.667-9.667s9.667 4.328 9.667 9.667c0 5.339-4.328 9.667-9.667 9.667s-9.667-4.328-9.667-9.667zM14.667 3c-6.443 0-11.667 5.223-11.667 11.667s5.223 11.667 11.667 11.667c2.862 0 5.483-1.030 7.512-2.74l3.781 3.781c0.391 0.391 1.024 0.391 1.414 0s0.391-1.024 0-1.414l-3.781-3.781c1.71-2.030 2.74-4.651 2.74-7.512 0-6.443-5.223-11.667-11.667-11.667z"></path>
</symbol>
<symbol id="icon-inbox" viewBox="0 0 32 32">
<path fill="#7fc34d" style="fill: var(--color1, #7fc34d)" opacity="0.12" d="M12.409 28h7.181c2.315 0 3.472 0 4.422-0.378 1.12-0.445 2.057-1.258 2.656-2.304 0.508-0.886 0.672-2.032 0.999-4.324v-0c0.106-0.741 0.159-1.111 0.064-1.404-0.111-0.345-0.359-0.63-0.685-0.789-0.277-0.135-0.651-0.135-1.399-0.135h-2.031c-0.835 0-1.252 0-1.631 0.115-0.335 0.102-0.647 0.269-0.918 0.491-0.306 0.251-0.537 0.599-1.001 1.293l-0.133 0.2c-0.463 0.695-0.695 1.042-1.001 1.293-0.271 0.223-0.583 0.39-0.918 0.491-0.379 0.115-0.796 0.115-1.631 0.115h-0.766c-0.835 0-1.252 0-1.631-0.115-0.335-0.102-0.647-0.269-0.918-0.491-0.306-0.251-0.537-0.599-1.001-1.293l-0.133-0.2c-0.463-0.695-0.695-1.042-1.001-1.293-0.271-0.223-0.583-0.39-0.918-0.491-0.379-0.115-0.796-0.115-1.631-0.115h-2.031c-0.748 0-1.122 0-1.399 0.135-0.326 0.159-0.573 0.444-0.685 0.789-0.094 0.293-0.042 0.663 0.064 1.404 0.327 2.292 0.491 3.437 0.999 4.324 0.6 1.046 1.536 1.858 2.656 2.304 0.949 0.378 2.107 0.378 4.422 0.378z"></path>
<path fill="#7fc34d" style="fill: var(--color1, #7fc34d)" d="M16.999 2.667v10.919l2.293-2.293c0.391-0.39 1.024-0.39 1.414 0s0.391 1.024 0 1.414l-4 4c-0.391 0.391-1.024 0.391-1.414 0l-4-4c-0.391-0.391-0.391-1.024 0-1.414s1.024-0.39 1.414 0l2.293 2.293v-10.919c0-0.552 0.448-1 1-1s1 0.448 1 1zM10.481 4.333c-1.010-0.001-1.801-0.002-2.487 0.286-0.601 0.253-1.124 0.661-1.515 1.183-0.446 0.595-0.637 1.363-0.881 2.343l-1.869 7.477c-0.193 0.774-0.304 1.217-0.38 1.667-0.149 0.885-0.195 1.785-0.138 2.681 0.029 0.455 0.094 0.908 0.206 1.697l0.032 0.221c0.225 1.576 0.369 2.584 0.754 3.422 0.762 1.659 2.203 2.908 3.952 3.428 0.884 0.263 1.902 0.262 3.494 0.262h8.7c1.592 0 2.61 0.001 3.494-0.262 1.75-0.52 3.191-1.769 3.952-3.428 0.385-0.838 0.529-1.846 0.754-3.422l0.025-0.176 0.007-0.045c0.113-0.79 0.177-1.242 0.206-1.697 0.057-0.896 0.011-1.795-0.138-2.681-0.076-0.45-0.187-0.893-0.38-1.667l-1.869-7.477c-0.244-0.98-0.435-1.747-0.881-2.343-0.391-0.522-0.914-0.93-1.515-1.183-0.686-0.288-1.477-0.287-2.487-0.286l-1.185 0c-0.552 0-1 0.448-1 1s0.448 1 1 1h1.002c1.284 0 1.631 0.019 1.895 0.13 0.273 0.115 0.511 0.3 0.689 0.538 0.172 0.229 0.274 0.561 0.586 1.807l1.814 7.255c0.207 0.83 0.298 1.195 0.359 1.558l0.008 0.045h-3.193c-0.712-0.001-1.272-0.001-1.797 0.158-0.461 0.14-0.89 0.37-1.263 0.676-0.423 0.348-0.734 0.814-1.128 1.407l-0.203 0.304c-0.498 0.747-0.639 0.941-0.803 1.076-0.169 0.139-0.364 0.243-0.574 0.307-0.203 0.062-0.443 0.072-1.341 0.072h-0.766c-0.897 0-1.137-0.010-1.341-0.072-0.21-0.064-0.405-0.168-0.574-0.307-0.164-0.135-0.306-0.329-0.803-1.076l-0.203-0.304c-0.395-0.593-0.705-1.059-1.128-1.407-0.372-0.306-0.801-0.536-1.263-0.676-0.524-0.159-1.084-0.159-1.797-0.158h-3.193l0.008-0.045c0.061-0.364 0.152-0.728 0.359-1.558l1.814-7.255c0.311-1.246 0.414-1.577 0.586-1.807 0.178-0.237 0.415-0.423 0.689-0.538 0.264-0.111 0.611-0.13 1.895-0.13h1.002c0.552 0 1-0.448 1-1s-0.448-1-1-1l-1.185-0zM5.207 19.842c-0.004-0.059-0.007-0.117-0.010-0.176h3.185c0.897 0 1.137 0.010 1.341 0.072 0.21 0.064 0.405 0.168 0.574 0.307 0.164 0.135 0.306 0.329 0.803 1.076l0.203 0.304c0.395 0.593 0.705 1.059 1.128 1.407 0.372 0.306 0.801 0.536 1.263 0.676 0.524 0.159 1.084 0.159 1.797 0.158h1.017c0.712 0.001 1.273 0.001 1.797-0.158 0.461-0.14 0.89-0.37 1.263-0.676 0.423-0.348 0.734-0.814 1.128-1.407l0.069-0.104 0.133-0.2c0.498-0.747 0.639-0.941 0.803-1.076 0.169-0.139 0.364-0.243 0.574-0.307 0.203-0.062 0.444-0.072 1.341-0.072h3.185c-0.003 0.059-0.006 0.117-0.010 0.176-0.024 0.368-0.076 0.74-0.197 1.587-0.259 1.812-0.368 2.506-0.616 3.046-0.521 1.135-1.507 1.99-2.704 2.345-0.569 0.169-1.272 0.179-3.102 0.179h-8.344c-1.831 0-2.533-0.010-3.102-0.179-1.197-0.355-2.183-1.21-2.704-2.345-0.248-0.54-0.357-1.234-0.616-3.046-0.121-0.847-0.173-1.219-0.197-1.587z"></path>
</symbol>
<symbol id="icon-laptop" viewBox="0 0 32 32">
<path fill="#7fc34d" style="fill: var(--color1, #7fc34d)" opacity="0.12" d="M4 10.933c0-1.493 0-2.24 0.291-2.811 0.256-0.502 0.664-0.91 1.165-1.165 0.57-0.291 1.317-0.291 2.811-0.291h15.467c1.493 0 2.24 0 2.811 0.291 0.502 0.256 0.91 0.664 1.165 1.165 0.291 0.57 0.291 1.317 0.291 2.811v11.733h-24v-11.733z"></path>
<path fill="#7fc34d" style="fill: var(--color1, #7fc34d)" d="M8.267 5.667h15.507c0.712 0 1.307-0 1.792 0.040 0.507 0.041 0.982 0.131 1.432 0.36 0.69 0.352 1.251 0.912 1.602 1.602 0.229 0.45 0.319 0.925 0.36 1.432 0.040 0.486 0.040 1.080 0.040 1.792v10.774h0.867c0.994 0 1.8 0.806 1.8 1.8 0 2.32-1.88 4.2-4.2 4.2h-22.933c-2.32 0-4.2-1.88-4.2-4.2 0-0.994 0.806-1.8 1.8-1.8h0.867v-10.774c0-0.712-0-1.307 0.040-1.792 0.041-0.507 0.131-0.982 0.36-1.432 0.352-0.69 0.912-1.251 1.602-1.602 0.45-0.229 0.925-0.319 1.432-0.36 0.486-0.040 1.080-0.040 1.792-0.040h0.041zM27 21.667v-10.733c0-0.763-0.001-1.276-0.033-1.67-0.031-0.383-0.087-0.566-0.149-0.687-0.16-0.314-0.415-0.569-0.728-0.728-0.121-0.062-0.304-0.117-0.687-0.149-0.395-0.032-0.907-0.033-1.67-0.033h-15.467c-0.763 0-1.276 0.001-1.67 0.033-0.383 0.031-0.566 0.087-0.687 0.149-0.314 0.16-0.569 0.415-0.728 0.728-0.062 0.121-0.117 0.304-0.149 0.687-0.032 0.394-0.033 0.907-0.033 1.67v10.733h22zM4 23.667h-1.658c0.101 1.121 1.043 2 2.191 2h22.933c1.148 0 2.090-0.879 2.191-2h-25.658z"></path>
</symbol>
<symbol id="icon-user-check" viewBox="0 0 32 32">
<path fill="#7fc34d" style="fill: var(--color1, #7fc34d)" opacity="0.12" d="M12 14.667c2.945 0 5.333-2.388 5.333-5.333s-2.388-5.333-5.333-5.333c-2.946 0-5.333 2.388-5.333 5.333s2.388 5.333 5.333 5.333zM2.667 25.333c0-2.945 2.388-5.333 5.333-5.333h8c2.945 0 5.333 2.388 5.333 5.333 0 1.473-1.194 2.667-2.667 2.667h-13.333c-1.473 0-2.667-1.194-2.667-2.667z"></path>
<path fill="#7fc34d" style="fill: var(--color1, #7fc34d)" d="M12 5c-2.393 0-4.333 1.94-4.333 4.333s1.94 4.333 4.333 4.333c2.393 0 4.333-1.94 4.333-4.333s-1.94-4.333-4.333-4.333zM5.667 9.333c0-3.498 2.836-6.333 6.333-6.333s6.333 2.836 6.333 6.333-2.835 6.333-6.333 6.333c-3.498 0-6.333-2.836-6.333-6.333zM8 21c-2.393 0-4.333 1.94-4.333 4.333 0 0.921 0.746 1.667 1.667 1.667h13.333c0.921 0 1.667-0.746 1.667-1.667 0-2.393-1.94-4.333-4.333-4.333h-8zM1.667 25.333c0-3.498 2.836-6.333 6.333-6.333h8c3.498 0 6.333 2.835 6.333 6.333 0 2.025-1.642 3.667-3.667 3.667h-13.333c-2.025 0-3.667-1.642-3.667-3.667zM31.374 11.374c0.391-0.391 0.391-1.024 0-1.414s-1.024-0.39-1.414 0l-4.626 4.626-1.96-1.96c-0.391-0.39-1.024-0.39-1.414 0s-0.391 1.024 0 1.414l2.667 2.667c0.391 0.391 1.024 0.391 1.414 0l5.333-5.333z"></path>
</symbol>
<symbol id="icon-wrench" viewBox="0 0 32 32">
<path fill="#7fc34d" style="fill: var(--color1, #7fc34d)" opacity="0.12" d="M5.319 23.804c-1.041 1.041-1.041 2.73 0 3.771s2.73 1.041 3.771 0l8.807-8.807c2.974 1.421 6.643 0.899 9.106-1.564s2.984-6.132 1.564-9.106l-4.769 4.769c-0.528 0.528-0.792 0.792-1.096 0.891-0.268 0.087-0.556 0.087-0.824 0-0.305-0.099-0.569-0.363-1.097-0.891l-0.754-0.754c-0.528-0.528-0.792-0.792-0.891-1.096-0.087-0.268-0.087-0.556 0-0.824 0.099-0.304 0.363-0.568 0.891-1.096l4.769-4.769c-2.974-1.421-6.643-0.899-9.106 1.564s-2.984 6.133-1.564 9.106l-8.807 8.807z"></path>
<path fill="#7fc34d" style="fill: var(--color1, #7fc34d)" d="M25.782 4.158c0.055 0.32-0.049 0.647-0.279 0.876l-4.769 4.769c-0.276 0.276-0.439 0.44-0.551 0.572-0.068 0.080-0.091 0.12-0.097 0.131-0.020 0.064-0.020 0.133 0 0.197 0.006 0.011 0.029 0.050 0.097 0.131 0.112 0.132 0.275 0.296 0.551 0.572l0.754 0.754c0.276 0.276 0.441 0.439 0.572 0.551 0.080 0.068 0.12 0.091 0.131 0.097 0.064 0.020 0.133 0.020 0.197 0 0.011-0.006 0.050-0.029 0.131-0.097 0.132-0.112 0.297-0.275 0.572-0.551l4.769-4.769c0.229-0.23 0.556-0.333 0.876-0.279s0.593 0.262 0.733 0.555c1.597 3.344 1.013 7.472-1.759 10.244-2.592 2.592-6.371 3.271-9.585 2.042l-8.329 8.329c-1.432 1.432-3.753 1.432-5.185 0s-1.432-3.753 0-5.185l8.329-8.329c-1.229-3.214-0.55-6.992 2.042-9.585 2.772-2.772 6.9-3.356 10.244-1.759 0.293 0.14 0.5 0.413 0.555 0.733zM22.385 12.81c0 0 0.001-0 0.002-0.001l-0.002 0.001zM22.194 12.81c0 0-0.001-0-0.002-0.001l0.002 0.001zM20.084 10.7c0 0 0 0.001 0.001 0.002l-0.001-0.002zM20.085 10.508c-0.001 0.001-0.001 0.002-0.001 0.002l0.001-0.002zM22.971 4.738c-2.286-0.543-4.792 0.078-6.574 1.86-2.154 2.154-2.612 5.365-1.369 7.968 0.183 0.382 0.104 0.839-0.195 1.138l-8.807 8.807c-0.651 0.651-0.651 1.706 0 2.357s1.706 0.651 2.357 0l8.807-8.807c0.3-0.3 0.756-0.378 1.138-0.195 2.603 1.244 5.814 0.785 7.968-1.369 1.782-1.782 2.403-4.288 1.86-6.574l-3.677 3.676c-0.243 0.243-0.466 0.466-0.667 0.637-0.217 0.185-0.475 0.367-0.803 0.473-0.469 0.152-0.973 0.152-1.442 0-0.328-0.106-0.585-0.289-0.803-0.473-0.202-0.171-0.425-0.394-0.667-0.637l-0.804-0.804c-0.243-0.243-0.466-0.466-0.637-0.667-0.185-0.217-0.367-0.475-0.473-0.803-0.152-0.469-0.152-0.973 0-1.442 0.107-0.328 0.289-0.585 0.473-0.803 0.171-0.202 0.394-0.425 0.637-0.667l0.025-0.025 3.652-3.652z"></path>
</symbol>
</defs>
</svg>
